<?xml version="1.0" encoding="utf-8"?>
<!-- Generator: Adobe Illustrator 24.0.0, SVG Export Plug-In . SVG Version: 6.00 Build 0)  -->
<svg version="1.1" id="Layer_1" xmlns="http://www.w3.org/2000/svg" xmlns:xlink="http://www.w3.org/1999/xlink" x="0px" y="0px"
	 width="48px" height="48px" viewBox="0 0 48 48" style="enable-background:new 0 0 48 48;" xml:space="preserve">
<style type="text/css">
	.st0{fill:#0062FF;}
</style>
<path id="secure--hybrid--cloud_1_" class="st0" d="M27,39.4c-3.5,0-6.4-2.9-6.4-6.4v-7.2l6.4-3.2l6.4,3.2V33
	C33.4,36.5,30.5,39.4,27,39.4z M21.4,26.2V33c0,3.1,2.5,5.6,5.6,5.6s5.6-2.5,5.6-5.6v-6.8L27,23.4L21.4,26.2z M35.1,28.3
	c2.4-0.8,4.2-3.6,4.2-6.4c0-3.1-2.4-5.8-5.4-6.1c-0.4-4-3.7-7.1-7.8-7.1c-2.9,0-5.6,1.6-7,4.2c-0.9-0.3-1.8-0.5-2.7-0.5
	c-4.3,0-7.8,3.5-7.8,7.9c0,4.1,2.8,7.6,6.7,8.1H19c0.2,0,0.4-0.2,0.4-0.4s-0.2-0.4-0.4-0.4l-3.6,0c-3.4-0.5-6-3.7-6-7.4
	c0-3.9,3.2-7.1,7.1-7.1c0.9,0,1.8,0.2,2.7,0.5c0.2,0.1,0.4,0,0.5-0.2c1.2-2.5,3.7-4.1,6.5-4.1c3.8,0,6.9,3,7.1,6.8
	c0,0.2,0.2,0.3,0.3,0.3c2.9,0.2,5.1,2.6,5.1,5.5c0,2.5-1.6,5.1-3.8,5.7c-0.2,0.1-0.3,0.3-0.2,0.5c0,0.2,0.2,0.2,0.3,0.2
	C35,28.4,35.1,28.4,35.1,28.3z"/>
</svg>
