<?xml version="1.0" encoding="utf-8"?>
<!-- Generator: Adobe Illustrator 24.0.0, SVG Export Plug-In . SVG Version: 6.00 Build 0)  -->
<svg version="1.1" id="Layer_1" xmlns="http://www.w3.org/2000/svg" xmlns:xlink="http://www.w3.org/1999/xlink" x="0px" y="0px"
	 width="48px" height="48px" viewBox="0 0 48 48" style="enable-background:new 0 0 48 48;" xml:space="preserve">
<style type="text/css">
	.st0{fill:#0062FF;}
</style>
<path id="data--security_2_" class="st0" d="M25,34.4H9c-0.2,0-0.4-0.2-0.4-0.4v-7c0-0.2,0.2-0.4,0.4-0.4h16v0.7H9.4v6.3H25V34.4z
	 M25,25.4H9c-0.2,0-0.4-0.2-0.4-0.4v-7c0-0.2,0.2-0.4,0.4-0.4h25c0.2,0,0.4,0.2,0.4,0.4v3h-0.7v-2.6H9.4v6.3H25V25.4z M34,16.4H9
	c-0.2,0-0.4-0.2-0.4-0.4V9c0-0.2,0.2-0.4,0.4-0.4h25c0.2,0,0.4,0.2,0.4,0.4v7C34.4,16.2,34.2,16.4,34,16.4z M9.4,15.6h24.3V9.4H9.4
	V15.6z M30,22.5c-0.6,0-1-0.4-1-1s0.4-1,1-1s1,0.4,1,1S30.6,22.5,30,22.5z M31,12.5c0-0.6-0.4-1-1-1s-1,0.4-1,1s0.4,1,1,1
	S31,13.1,31,12.5z M33,39.4c-3.5,0-6.4-2.9-6.4-6.4v-7.2l6.4-3.2l6.4,3.2V33C39.4,36.5,36.5,39.4,33,39.4z M27.4,26.2V33
	c0,3.1,2.5,5.6,5.6,5.6s5.6-2.5,5.6-5.6v-6.8L33,23.4L27.4,26.2z"/>
</svg>
